<svg viewBox="0 0 400 400" xmlns="http://www.w3.org/2000/svg" role="img" aria-label="Checkout in seconds">
  <rect x="0" y="0" width="400" height="400" fill="#FBF9F4"/>
  <circle cx="200" cy="220" r="128" fill="#E8F2EE"/>
  
    <rect x="140" y="150" width="120" height="150" rx="16" fill="#FFFFFF" stroke="#DCE4E0" stroke-width="2"/>
    <rect x="156" y="168" width="88" height="60" rx="6" fill="#0F6B5C"/>
    <rect x="156" y="240" width="24" height="10" rx="3" fill="#C7CFCB"/>
    <rect x="188" y="240" width="24" height="10" rx="3" fill="#C7CFCB"/>
    <rect x="220" y="240" width="24" height="10" rx="3" fill="#C7CFCB"/>
    <rect x="156" y="258" width="24" height="10" rx="3" fill="#C7CFCB"/>
    <rect x="188" y="258" width="24" height="10" rx="3" fill="#C7CFCB"/>
    <rect x="220" y="258" width="24" height="10" rx="3" fill="#FF7A45"/>
    <g transform="translate(255,110) rotate(18)">
      <rect x="0" y="0" width="70" height="46" rx="8" fill="#FF7A45"/>
      <rect x="10" y="12" width="20" height="14" rx="3" fill="#FBF9F4"/>
    </g>
    <path d="M258,96 q10,-14 22,-8" stroke="#1B211F" stroke-width="3" fill="none" stroke-linecap="round" opacity="0.5"/>
    <path d="M266,88 q10,-16 24,-10" stroke="#1B211F" stroke-width="3" fill="none" stroke-linecap="round" opacity="0.3"/>
    <path d="M150,300 q35,26 110,0 l-6,34 q-49,20 -98,0 Z" fill="#FFFFFF" stroke="#DCE4E0" stroke-width="2"/>
    <line x1="164" y1="316" x2="236" y2="316" stroke="#C7CFCB" stroke-width="3" stroke-linecap="round"/>
    <line x1="164" y1="326" x2="216" y2="326" stroke="#C7CFCB" stroke-width="3" stroke-linecap="round"/>
    
</svg>